<svg
              xmlns="http://www.w3.org/2000/svg"
              xmlns:xlink="http://www.w3.org/1999/xlink"
              width="40px"
              height="40px"
              viewBox="0 0 40 40"
              version="1.1"
            >
              <defs>
                <filter
                  id="alpha"
                  filterUnits="objectBoundingBox"
                  x="0%"
                  y="0%"
                  width="100%"
                  height="100%"
                >
                  <feColorMatrix
                    type="matrix"
                    in="SourceGraphic"
                    values="0 0 0 0 1 0 0 0 0 1 0 0 0 0 1 0 0 0 1 0"
                  ></feColorMatrix>
                </filter>
                <mask id="mask0">
                  <g filter="url(#alpha)">
                    <rect
                      x="0"
                      y="0"
                      width="40"
                      height="40"
                      fill="#000"></rect>
                  </g>
                </mask>
                <clipPath id="clip1">
                  <rect x="0" y="0" width="40" height="40"></rect>
                </clipPath>
                <g id="surface5" clip-path="url(#clip1)">
                  <path
                    fill="#000"
                    style=" stroke:none;fill-rule:evenodd;fill-opacity:1;"
                    d="M 18 9.429688 C 18.972656 9.335938 19.921875 9.433594 20.855469 9.714844 C 23.433594 11.289062 26.097656 12.71875 28.855469 14 C 29.417969 15.671875 29.609375 17.386719 29.429688 19.144531 C 25.894531 20.8125 22.273438 22.339844 18.570312 23.714844 C 18.882812 21.820312 19.167969 19.917969 19.429688 18 C 22.84375 17.035156 22.84375 16.082031 19.429688 15.144531 C 17.714844 15.90625 16 16.667969 14.285156 17.429688 C 12.738281 16.605469 11.121094 16.035156 9.429688 15.714844 C 9.304688 15.042969 9.492188 14.472656 10 14 C 12.890625 12.75 15.554688 11.226562 18 9.429688 Z M 18 9.429688 "
                  ></path>
                </g>
              </defs>
              <g id="surface1">
                <path
                  fill="#000"
                  style=" stroke:none;fill-rule:evenodd;fill-opacity:1;"
                  d="M 19.714844 39.714844 C 19.523438 39.714844 19.332031 39.714844 19.144531 39.714844 C 13.363281 36.347656 7.460938 33.109375 1.429688 30 C 0.761719 23.339844 0.667969 16.675781 1.144531 10 C 7.199219 6.542969 13.390625 3.304688 19.714844 0.285156 C 25.808594 3.523438 31.90625 6.761719 38 10 C 38.761719 16.667969 38.761719 23.332031 38 30 C 31.6875 32.964844 25.59375 36.203125 19.714844 39.714844 Z M 19.144531 6 C 23.417969 8.425781 27.800781 10.710938 32.285156 12.855469 C 32.953125 17.417969 33.046875 21.988281 32.570312 26.570312 C 28.328125 29.097656 23.945312 31.382812 19.429688 33.429688 C 15.195312 31.167969 10.910156 28.980469 6.570312 26.855469 C 5.914062 22.425781 5.820312 17.949219 6.285156 13.429688 C 10.652344 11.007812 14.941406 8.53125 19.144531 6 Z M 19.144531 6 "
                ></path>
                <use xlink:href="#surface5" mask="url(#mask0)"></use>
                <path
                  fill="#000"
                  style=" stroke:none;fill-rule:evenodd;fill-opacity:1;"
                  d="M 10.570312 21.429688 C 13.828125 22.054688 16.78125 23.390625 19.429688 25.429688 C 21.941406 23.957031 24.511719 22.625 27.144531 21.429688 C 28.8125 22.171875 30.527344 22.742188 32.285156 23.144531 C 32.285156 23.714844 32.285156 24.285156 32.285156 24.855469 C 27.972656 26.632812 23.78125 28.726562 19.714844 31.144531 C 15.4375 28.753906 11.054688 26.660156 6.570312 24.855469 C 6.570312 24.285156 6.570312 23.714844 6.570312 23.144531 C 8.136719 23.023438 9.472656 22.453125 10.570312 21.429688 Z M 10.570312 21.429688 "
                ></path>
              </g>
            </svg>